{
	"asset":{
		"generator":"Khronos glTF Blender I/O v3.5.30",
		"version":"2.0"
	},
	"scene":0,
	"scenes":[
		{
			"name":"Scene",
			"nodes":[
				0
			]
		}
	],
	"nodes":[
		{
			"mesh":0,
			"name":"Text",
			"rotation":[
				0.5,
				0.5,
				-0.5,
				0.4999999701976776
			]
		}
	],
	"materials":[
		{
			"doubleSided":true,
			"name":"Material.001",
			"pbrMetallicRoughness":{
				"baseColorFactor":[
					0.800000011920929,
					0.800000011920929,
					0.800000011920929,
					1
				],
				"metallicFactor":0,
				"roughnessFactor":0.5
			}
		}
	],
	"meshes":[
		{
			"name":"Text",
			"primitives":[
				{
					"attributes":{
						"POSITION":0,
						"TEXCOORD_0":1,
						"NORMAL":2
					},
					"indices":3,
					"material":0
				}
			]
		}
	],
	"accessors":[
		{
			"bufferView":0,
			"componentType":5126,
			"count":18657,
			"max":[
				2.7330386638641357,
				0.07999999821186066,
				0.015747465193271637
			],
			"min":[
				-2.7401514053344727,
				-0.07999999821186066,
				-0.34850573539733887
			],
			"type":"VEC3"
		},
		{
			"bufferView":1,
			"componentType":5126,
			"count":18657,
			"type":"VEC2"
		},
		{
			"bufferView":2,
			"componentType":5126,
			"count":18657,
			"type":"VEC3"
		},
		{
			"bufferView":3,
			"componentType":5123,
			"count":94932,
			"type":"SCALAR"
		}
	],
	"bufferViews":[
		{
			"buffer":0,
			"byteLength":223884,
			"byteOffset":0,
			"target":34962
		},
		{
			"buffer":0,
			"byteLength":149256,
			"byteOffset":223884,
			"target":34962
		},
		{
			"buffer":0,
			"byteLength":223884,
			"byteOffset":373140,
			"target":34962
		},
		{
			"buffer":0,
			"byteLength":189864,
			"byteOffset":597024,
			"target":34963
		}
	],
	"buffers":[
		{
			"byteLength":786888,
			"uri":"data:application/octet-stream;base64,"
		}
	]
}
